<?xml version="1.0" encoding="UTF-8" standalone="no"?>
<svg width="300px" height="300px" viewBox="0 0 300 300" version="1.1" xmlns="http://www.w3.org/2000/svg" xmlns:xlink="http://www.w3.org/1999/xlink" xmlns:sketch="http://www.bohemiancoding.com/sketch/ns">
    <!-- Generator: Sketch 3.3.3 (12081) - http://www.bohemiancoding.com/sketch -->
    <title>Rectangle 3238 + Fill 1 Copy + Fill 2 Copy + Shape + Shape + Shape</title>
    <desc>Created with Sketch.</desc>
    <defs></defs>
    <g id="Home" stroke="none" stroke-width="1" fill="none" fill-rule="evenodd" sketch:type="MSPage">
        <g id="Rectangle-3238-+-Fill-1-Copy-+-Fill-2-Copy-+-Shape-+-Shape-+-Shape" sketch:type="MSLayerGroup">
            <rect id="Rectangle-3238" fill="#E9E9E9" sketch:type="MSShapeGroup" x="0" y="0" width="300" height="300"></rect>
            <g id="Fill-1-Copy-+-Fill-2-Copy" transform="translate(81.000000, 59.000000)" fill="#F5F5F5" sketch:type="MSShapeGroup">
                <path d="M138.716086,122.688915 C138.716086,160.400801 107.842218,190.966589 69.7299237,190.966589 C31.6486624,190.978109 0.751520039,160.404641 0.751520039,122.688915 C0.751520039,84.9808694 31.6486624,54.4112408 69.7260446,54.4112408 C107.842218,54.4112408 138.716086,84.9808694 138.716086,122.688915" id="Fill-1-Copy"></path>
                <path d="M78.9273028,9.96028996 C71.7587003,8.84671223 65.9400294,8.86975177 60.9514889,8.17088575 C54.7798187,7.6985752 43.1075649,6.0934873 39.7327358,0.652316139 C39.7327358,0.652316139 39.6551535,1.13614646 39.6008459,2.03084857 C39.4689561,4.03144855 39.4573187,8.03648844 40.6482067,13.1935053 C41.780908,17.5518181 43.417894,22.006129 45.7414833,26.2338844 C46.4862731,27.5701777 47.3357991,28.9218307 48.2706655,30.2926833 C54.0311497,38.5677177 63.1703421,44.4735196 76.9101636,47.5416182 C94.9247686,51.554338 112.020024,54.4419602 125.286593,71.1648257 C125.317626,71.099547 125.333143,71.0150687 125.368055,70.9421102 C127.808017,61.8722116 118.564089,16.0734477 78.9273028,9.96028996" id="Fill-2-Copy"></path>
            </g>
            <g id="Shape-+-Shape-+-Shape" transform="translate(37.000000, 39.000000)" fill="#CFCFCF" sketch:type="MSShapeGroup">
                <path d="M113.591797,0 C50.9572801,0 0,43.6675301 0,97.3417969 L0,147.959531 C0,152.260092 4.06885816,155.746875 9.08734375,155.746875 C14.1058293,155.746875 18.1746875,152.260092 18.1746875,147.959531 L18.1746875,97.3417969 C18.1746875,52.2550234 60.9783484,15.5746875 113.591797,15.5746875 C166.205245,15.5746875 209.008906,52.2550234 209.008906,97.3417969 L209.008906,147.959531 C209.008906,152.260092 213.077764,155.746875 218.09625,155.746875 C223.114736,155.746875 227.183594,152.260092 227.183594,147.959531 L227.183594,97.3417969 C227.183594,43.6675301 176.226314,0 113.591797,0 L113.591797,0 Z" id="Shape"></path>
                <path d="M39.5606765,108.163008 L26.8254172,108.163008 C22.5838672,108.163008 20.4620312,110.284844 20.4620312,114.528516 L20.4620312,171.815964 C20.4620312,176.061758 22.5838672,178.183594 26.8254172,178.183594 L39.5606765,178.183594 C43.8022266,178.183594 45.9240625,176.061758 45.9240625,171.815964 L45.9240625,114.528516 C45.9240625,110.284844 43.8022266,108.163008 39.5606765,108.163008 L39.5606765,108.163008 Z" id="Shape"></path>
                <path d="M200.358177,108.163008 L187.622917,108.163008 C183.381367,108.163008 181.259531,110.284844 181.259531,114.528516 L181.259531,171.815964 C181.259531,176.061758 183.381367,178.183594 187.622917,178.183594 L200.358177,178.183594 C204.599727,178.183594 206.721563,176.061758 206.721563,171.815964 L206.721563,114.528516 C206.721563,110.284844 204.599727,108.163008 200.358177,108.163008 L200.358177,108.163008 Z" id="Shape"></path>
            </g>
        </g>
    </g>
</svg>