<svg width="229" height="300" viewBox="0 0 229 300" xmlns="http://www.w3.org/2000/svg" xmlns:xlink="http://www.w3.org/1999/xlink"><title>Rectangle 3238 + Fill 1 Copy + Fill 2 Copy + Shape + Shape + Shape Copy Copy</title><defs><path d="M138.716 122.69c0 37.71-30.874 68.277-68.986 68.277-38.08.01-68.978-30.562-68.978-68.278 0-37.71 30.897-68.28 68.974-68.28 38.116 0 68.99 30.57 68.99 68.28" id="a"/></defs><g fill="none" fill-rule="evenodd"><path fill="#E9E9E9" d="M3 0h225v300H3z"/><g fill="#FFF"><path d="M26.25 9.81h8.72c.924 0 1.585.66 1.585 1.585v8.72c0 .924-.66 1.585-1.585 1.585h-8.72c-.924 0-1.585-.66-1.585-1.586v-8.72c0-.924.66-1.584 1.585-1.584zM11.19 21.7H2.47c-.924 0-1.585-.66-1.585-1.586v-8.72c0-.924.66-1.584 1.585-1.584h8.72c.924 0 1.585.66 1.585 1.585v8.72c0 .792-.66 1.585-1.585 1.585zM58.75 21.7h-8.72c-.924 0-1.585-.66-1.585-1.586v-8.72c0-.924.66-1.584 1.585-1.584h8.72c.924 0 1.585.66 1.585 1.585v8.72c0 .792-.66 1.585-1.585 1.585zM82.53 21.7h-8.72c-.924 0-1.585-.66-1.585-1.586v-8.72c0-.924.66-1.584 1.585-1.584h8.72c.924 0 1.585.66 1.585 1.585v8.72c0 .792-.66 1.585-1.585 1.585zM106.53 21.7h-8.72c-.924 0-1.585-.66-1.585-1.586v-8.72c0-.924.66-1.584 1.585-1.584h8.72c.924 0 1.585.66 1.585 1.585v8.72c0 .792-.66 1.585-1.585 1.585zM146.25 9.81h8.72c.924 0 1.585.66 1.585 1.585v8.72c0 .924-.66 1.585-1.585 1.585h-8.72c-.924 0-1.585-.66-1.585-1.586v-8.72c0-.924.66-1.584 1.585-1.584zM131.19 21.7h-8.72c-.924 0-1.585-.66-1.585-1.586v-8.72c0-.924.66-1.584 1.585-1.584h8.72c.924 0 1.585.66 1.585 1.585v8.72c0 .792-.66 1.585-1.585 1.585zM178.75 21.7h-8.72c-.924 0-1.585-.66-1.585-1.586v-8.72c0-.924.66-1.584 1.585-1.584h8.72c.924 0 1.585.66 1.585 1.585v8.72c0 .792-.66 1.585-1.585 1.585zM202.53 21.7h-8.72c-.924 0-1.585-.66-1.585-1.586v-8.72c0-.924.66-1.584 1.585-1.584h8.72c.924 0 1.585.66 1.585 1.585v8.72c0 .792-.66 1.585-1.585 1.585zM226.53 21.7h-8.72c-.924 0-1.585-.66-1.585-1.586v-8.72c0-.924.66-1.584 1.585-1.584h8.72c.924 0 1.585.66 1.585 1.585v8.72c0 .792-.66 1.585-1.585 1.585z"/></g><g fill="#FFF"><path d="M26.25 278.81h8.72c.924 0 1.585.66 1.585 1.585v8.72c0 .924-.66 1.585-1.585 1.585h-8.72c-.924 0-1.585-.66-1.585-1.586v-8.72c0-.924.66-1.584 1.585-1.584zM11.19 290.7H2.47c-.924 0-1.585-.66-1.585-1.586v-8.72c0-.924.66-1.584 1.585-1.584h8.72c.924 0 1.585.66 1.585 1.585v8.72c0 .792-.66 1.585-1.585 1.585zM58.75 290.7h-8.72c-.924 0-1.585-.66-1.585-1.586v-8.72c0-.924.66-1.584 1.585-1.584h8.72c.924 0 1.585.66 1.585 1.585v8.72c0 .792-.66 1.585-1.585 1.585zM82.53 290.7h-8.72c-.924 0-1.585-.66-1.585-1.586v-8.72c0-.924.66-1.584 1.585-1.584h8.72c.924 0 1.585.66 1.585 1.585v8.72c0 .792-.66 1.585-1.585 1.585zM106.53 290.7h-8.72c-.924 0-1.585-.66-1.585-1.586v-8.72c0-.924.66-1.584 1.585-1.584h8.72c.924 0 1.585.66 1.585 1.585v8.72c0 .792-.66 1.585-1.585 1.585zM146.25 278.81h8.72c.924 0 1.585.66 1.585 1.585v8.72c0 .924-.66 1.585-1.585 1.585h-8.72c-.924 0-1.585-.66-1.585-1.586v-8.72c0-.924.66-1.584 1.585-1.584zM131.19 290.7h-8.72c-.924 0-1.585-.66-1.585-1.586v-8.72c0-.924.66-1.584 1.585-1.584h8.72c.924 0 1.585.66 1.585 1.585v8.72c0 .792-.66 1.585-1.585 1.585zM178.75 290.7h-8.72c-.924 0-1.585-.66-1.585-1.586v-8.72c0-.924.66-1.584 1.585-1.584h8.72c.924 0 1.585.66 1.585 1.585v8.72c0 .792-.66 1.585-1.585 1.585zM202.53 290.7h-8.72c-.924 0-1.585-.66-1.585-1.586v-8.72c0-.924.66-1.584 1.585-1.584h8.72c.924 0 1.585.66 1.585 1.585v8.72c0 .792-.66 1.585-1.585 1.585zM226.53 290.7h-8.72c-.924 0-1.585-.66-1.585-1.586v-8.72c0-.924.66-1.584 1.585-1.584h8.72c.924 0 1.585.66 1.585 1.585v8.72c0 .792-.66 1.585-1.585 1.585z"/></g><g transform="translate(49 45)"><mask id="b" fill="#fff"><use xlink:href="#a"/></mask><use fill="#F5F5F5" xlink:href="#a"/><path d="M-.5 56.866v135.268c0 1.38.986 2.366 2.366 2.366h135.268c1.38 0 2.366-.986 2.366-2.366V56.866c0-1.38-.986-2.366-2.366-2.366H1.866c-1.38 0-2.366.986-2.366 2.366zm92.366 64.282c1.775 1.775 1.775 4.93 0 6.704l-25.83 25.83c-2.96 2.96-8.085.79-8.085-3.35V98.668c0-4.34 5.127-6.31 8.085-3.353l25.83 25.83z" fill="#FFF" mask="url(#b)"/><path d="M78.927 9.96C71.76 8.847 65.94 8.87 60.95 8.17 54.78 7.7 43.11 6.094 39.734.653c0 0-.078.484-.132 1.38-.13 2-.143 6.004 1.048 11.162 1.133 4.358 2.77 8.812 5.093 13.04.746 1.336 1.596 2.688 2.53 4.06 5.76 8.274 14.9 14.18 28.64 17.248 18.015 4.012 35.11 6.9 48.377 23.623.03-.065.046-.15.08-.223 2.44-9.07-6.803-54.87-46.44-60.982" fill="#F5F5F5"/></g></g></svg>